<svg width="1598" height="655" viewBox="0 0 1598 655" fill="none" xmlns="http://www.w3.org/2000/svg">
<rect x="-2" width="1600" height="655" fill="#F8FAFF"/>
<path fill-rule="evenodd" clip-rule="evenodd" d="M293.863 90C305.993 109.184 313.939 130.743 317.146 153.266C320.688 178.14 318.351 203.498 310.323 227.306C302.295 251.114 288.8 272.709 270.919 290.359C253.038 308.01 231.269 321.224 207.359 328.943C183.449 336.661 158.063 338.669 133.237 334.805C108.411 330.941 84.836 321.313 64.4029 306.692C43.9698 292.072 27.2473 272.867 15.5767 250.617C3.91178 228.378 -2.38166 203.716 -2.79961 178.607L-2.80023 178.57L-25.0104 178.934L-79.7899 179.834L-102 180.198C-101.57 206.383 -97.1887 232.268 -89.0742 256.996C-84.6001 270.631 -78.991 283.914 -72.2837 296.702C-53.4117 332.681 -26.3707 363.737 6.67065 387.378C39.712 411.02 77.8339 426.589 117.979 432.838C158.124 439.086 199.174 435.839 237.838 423.358C276.502 410.877 311.702 389.509 340.616 360.967C369.531 332.426 391.354 297.505 404.335 259.007C417.317 220.508 421.096 179.503 415.369 139.281C413.333 124.985 410.117 110.93 405.775 97.2524C405.003 94.8228 404.196 92.405 403.354 90H293.863Z" fill="url(#paint0_linear_1230_1084)"/>
<defs>
<linearGradient id="paint0_linear_1230_1084" x1="157.983" y1="90" x2="157.983" y2="435.931" gradientUnits="userSpaceOnUse">
<stop stop-color="#F0F2F8" stop-opacity="0"/>
<stop offset="1" stop-color="#F0F2F8"/>
</linearGradient>
</defs>
</svg>
