<svg width="1280" height="205" viewBox="0 0 1280 205" fill="none" xmlns="http://www.w3.org/2000/svg">
<mask id="mask0_433:129" style="mask-type:alpha" maskUnits="userSpaceOnUse" x="0" y="0" width="1280" height="205">
<rect width="1280" height="205" rx="16" fill="#C4C4C4"/>
</mask>
<g mask="url(#mask0_433:129)">
<rect width="1280" height="205" rx="16" fill="#3E00FF"/>
<path opacity="0.15" d="M842.132 147.141C706.273 86.8949 519.042 157.296 370.658 109.618C293.453 84.8116 277.797 62.4268 222.395 25.4218C186.86 1.68656 183.473 -2.44548 149.746 -19.422C116.02 -36.3984 54.8584 -56.0291 54.8584 -56.0291V-118.261H1651.65V296.315H1270.61C1270.61 296.315 1067.1 298.272 969.638 246.895C910.363 215.647 911.68 177.981 842.132 147.141Z" fill="white"/>
<path opacity="0.15" d="M896.988 127.21C761.128 66.9643 573.897 152.923 425.513 105.246C348.309 80.439 307.892 -7.47391 285.405 -33.4548C273.084 -47.6909 254.27 -60.5034 223.712 -70.4687C193.153 -80.434 109.714 -75.9597 109.714 -75.9597V-138.192H1706.5V250.352H1349.19C1349.19 250.352 1098.62 255.335 1017.08 219.643C945.915 188.494 966.536 158.05 896.988 127.21Z" fill="#8A88FF"/>
</g>
</svg>
