<svg id="Layer_1" enable-background="new 0 0 512 512" height="512" viewBox="0 0 512 512" width="512" xmlns="http://www.w3.org/2000/svg"><g><path d="m256 22.002c-135.309 0-244.999 109.69-244.999 244.999 0 53.927 17.437 103.774 46.962 144.24l196.042 100.733c.666.006 1.328.026 1.995.026 135.309 0 244.999-109.69 244.999-244.999s-109.69-244.999-244.999-244.999z" fill="#42c3fc"/><g><path d="m237.606.979c-47.18 6.428-51.664 33.178-51.685 42.992-.005 2.058-1.145 3.966-2.995 4.866-24.542 11.939-11.31 69.478-11.31 69.478 2.465.165 5.044 1.163 6.968 2.094.471-2.932 1.24-5.819 2.326-8.609.828-2.126 1.863-4.274 3.156-6.303 2.245-3.521 3.267-7.675 2.962-11.827-.882-12.004-.457-35.657 15.388-42.786 13.423-6.04 29.889-2.542 40.39.949 6.819 2.268 14.206 2.268 21.026 0 10.5-3.492 26.966-6.989 40.39-.949 15.799 7.109 16.267 30.648 15.395 42.683-.303 4.185.692 8.381 2.953 11.929 1.335 2.095 2.395 4.316 3.236 6.509 1.045 2.727 1.788 5.544 2.247 8.404 2.425-1.175 5.892-2.455 8.857-2.035.363-12.582 1.525-26.145 1.525-26.145 13.98-68.477-50.029-98.171-100.829-91.25z" fill="#3b3868"/></g><path d="m242.104 51.609c-.14-.25-.271-.5-.419-.749-19.709-33.233 8.122-50.599 8.122-50.599l-.297-.225c-4.019.098-8.001.412-11.905.944-47.18 6.428-51.665 33.178-51.685 42.992-.005 2.058-1.145 3.966-2.995 4.866-24.541 11.939-11.31 69.478-11.31 69.478 2.464.165 5.044 1.163 6.968 2.094.471-2.932 1.24-5.819 2.326-8.609.828-2.126 1.863-4.274 3.156-6.303 2.245-3.521 3.266-7.675 2.962-11.827-.882-12.004-.457-35.657 15.388-42.786 13.134-5.911 29.168-2.688 39.689.724z" fill="#2d2d59"/><path d="m206.33 259.241c5.548 15.189 16.639 29.266 27.752 41.162h39.101c11.078-11.755 22.284-26.221 27.741-41.161v-.001c1.834-5.016 2.686-9.025 3.033-12.118-2.345-5.788-3.384-16.311-3.634-22.588-16.329 18.752-31.221 24.28-47.006 24.28-19.417 0-33.786-9.806-46.389-24.28-.252 6.327-1.293 16.758-3.627 22.62.349 3.089 1.202 7.087 3.029 12.086z" fill="#fcad6d"/><path d="m253.318 248.814c-19.417 0-33.785-9.806-46.389-24.28-.251 6.327-1.293 16.758-3.627 22.62.35 3.089 1.202 7.087 3.029 12.086v.001c5.548 15.189 16.639 29.266 27.752 41.162h3.525c11.352-14.814 15.182-35.244 16.223-51.594-.172.001-.342.005-.513.005z" fill="#fd995b"/><path d="m342.544 119.802c-3.675-3.368-10.994-1.661-14.159.402.693 4.318.733 8.735.134 13.097l-3.735 27.201c0 2.193-.069 4.344-.196 6.458 9.107 2.747 13.631-5.429 14.393-11.04.328-2.415.864-4.796 1.608-7.119 2.423-7.566 11.162-20.561 1.955-28.999z" fill="#fcad6d"/><g><path d="m334.215 147.499c-2.767 0-5.306-.981-7.286-2.614l-2.144 15.617c0 2.193-.069 4.344-.196 6.458 9.107 2.747 13.63-5.429 14.393-11.04.328-2.415.864-4.796 1.608-7.119.462-1.443 1.154-3.085 1.908-4.854-2.088 2.184-5.023 3.552-8.283 3.552z" fill="#fd995b"/></g><path d="m164.757 119.802c3.675-3.368 10.994-1.661 14.159.402-.693 4.318-.733 8.735-.134 13.097l3.735 27.201c0 2.193.069 4.344.196 6.458-9.107 2.747-13.631-5.429-14.393-11.04-.328-2.415-.865-4.796-1.608-7.119-2.423-7.566-11.162-20.561-1.955-28.999z" fill="#fcad6d"/><g><path d="m180.261 144.075c-2.079 2.112-4.968 3.424-8.166 3.424-2.511 0-4.827-.817-6.715-2.187.523 1.251.991 2.425 1.331 3.489.744 2.323 1.28 4.704 1.608 7.119.762 5.611 5.286 13.787 14.393 11.04-.127-2.114-.196-4.265-.196-6.458z" fill="#fd995b"/></g><path d="m326.352 111.796c-.928-2.422-2.034-4.647-3.288-6.614-2.144-3.363-3.16-7.473-2.864-11.572.948-13.086.164-36.105-15.739-43.261-13.357-6.008-29.567-2.813-40.814.928-6.661 2.217-13.998 2.216-20.659 0-11.247-3.741-27.458-6.94-40.814-.928-6.839 3.078-17.976 12.804-15.732 43.365.296 4.026-.724 8.099-2.871 11.469-1.218 1.91-2.297 4.065-3.208 6.405-2.667 6.853-3.531 14.457-2.496 21.993l3.73 27.126c0 44.925 27.181 70.881 38.867 79.955 9.327 7.245 20.995 11.234 32.853 11.234s23.526-3.989 32.853-11.234c11.686-9.074 38.867-35.031 38.861-79.874l3.735-27.201c1.025-7.461.19-14.996-2.414-21.791z" fill="#f9ba8f"/><g><path d="m261.021 240.662c-11.686-9.074-38.867-35.03-38.867-79.955l-3.73-27.126c-1.034-7.535-.171-15.14 2.496-21.993.911-2.34 1.99-4.495 3.208-6.405 2.147-3.37 3.166-7.443 2.871-11.469-2.134-29.053 7.823-39.272 14.687-42.854-11.173-3.549-26.658-6.297-39.512-.511-6.839 3.078-17.976 12.804-15.732 43.365.296 4.026-.724 8.099-2.871 11.469-1.218 1.91-2.297 4.065-3.208 6.405-2.667 6.853-3.531 14.457-2.496 21.993l3.73 27.126c0 44.925 27.181 70.881 38.867 79.955 9.327 7.245 20.994 11.234 32.853 11.234 6.972 0 13.874-1.389 20.278-3.998-4.487-1.829-8.731-4.251-12.574-7.236z" fill="#fcad6d"/></g><g><path d="m100.819 300.403h92.348c-3.023-8.405-6.141-19.291-7.879-32.285-.221-1.65.186-3.3 1.145-4.647l-.021-.015c-4.638 2.73-10.278 5.465-16.899 7.561-18.977 6.006-54.541 21.683-61.687 25.087l.005.012c-2.496 1.285-4.82 2.73-7.012 4.287z" fill="#ffb332"/></g><g><path d="m321.967 268.117c-1.736 12.977-4.859 23.876-7.883 32.285h6.854c5.89 0 10.682 4.792 10.682 10.682v137.75h111.157c-.654-16.923-1.419-39.302-2.31-43.745-1.456-7.261-2.107-14.655-2.05-22.061.167-21.652-3.736-68.763-38.995-86.915l.005-.012c-7.146-3.404-42.71-19.081-61.687-25.087-6.621-2.096-12.261-4.83-16.899-7.561l-.021.015c.96 1.35 1.367 3 1.147 4.649z" fill="#ffdd40"/><path d="m393.268 448.836c-2.151-17.444-9.15-68.348-19.561-86.506-2.065-3.602-7.554-2.165-7.554 1.988v84.518z" fill="#ffb332"/></g><path d="m191.533 300.403h45.112c-.189-.397-.422-.779-.743-1.116-11.018-11.52-22.378-25.921-27.814-40.802v-.001c-2.609-7.136-3.156-12.159-3.117-15.342.017-1.405-1.684-2.118-2.661-1.108-8.331 8.613-14.301 16.585-17.122 20.54-1.187 1.665-1.691 3.719-1.42 5.746 1.723 12.882 4.778 23.69 7.765 32.083z" fill="#ffdd40"/><path d="m315.722 300.403c2.987-8.393 6.042-19.201 7.764-32.082.271-2.027-.233-4.081-1.42-5.746-2.82-3.955-8.791-11.926-17.121-20.54-.977-1.01-2.678-.297-2.661 1.108.039 3.183-.508 8.206-3.117 15.342v.001c-5.435 14.881-16.795 29.282-27.814 40.802l-.035.036c-.314.331-.545.699-.734 1.079z" fill="#fceca9"/><path d="m411.097 426.82h-79.527v52.216c0 1.548-.342 3.059-1.017 4.49l-1.065 2.26h9.413c1.856 0 3.366 1.51 3.366 3.366 0 3.834-1.034 7.424-2.817 10.533h71.647c20.038 0 36.432-16.395 36.432-36.432.001-20.039-16.394-36.433-36.432-36.433z" fill="#fcad6d"/><path d="m402.585 471.185c-20.038 0-36.432-16.395-36.432-36.432 0-2.723.313-5.376.886-7.932h-35.47v52.216c0 1.548-.342 3.059-1.017 4.49l-1.065 2.26h9.413c1.856 0 3.366 1.51 3.366 3.366 0 3.834-1.034 7.424-2.817 10.533h71.647c17.314 0 31.899-12.245 35.546-28.5h-44.057z" fill="#fd995b"/><path d="m256 512h65.002c12.619 0 22.849-10.23 22.849-22.849 0-2.734-2.216-4.95-4.95-4.95h-196.324c33.915 17.748 72.492 27.799 113.423 27.799z" fill="#d3dcfb"/><g><path d="m236.421 488.558v-4.356h-93.845c26.009 13.61 54.763 22.687 85.215 26.183-2.088-2.324-3.37-5.388-3.37-8.759 0-6.869 5.279-12.497 12-13.068z" fill="#bec8f7"/></g><path d="m333.154 479.036v-167.951c0-6.719-5.497-12.215-12.215-12.215h-251.927c-6.718 0-12.215 5.497-12.215 12.215v98.558c25.421 35.439 60.065 63.805 100.42 81.608h163.722c6.718 0 12.215-5.497 12.215-12.215z" fill="#e9efff"/><ellipse cx="194.975" cy="395.06" fill="#bec8f7" rx="25.344" ry="25.344" transform="matrix(.376 -.927 .927 .376 -244.395 427.334)"/><path d="m213.235 388.809c0 6.403-5.191 11.593-11.593 11.593-6.403 0-11.593-5.191-11.593-11.593 0-6.403 5.191-11.593 11.593-11.593 6.403 0 11.593 5.19 11.593 11.593z" fill="#d3dcfb"/><ellipse cx="401.254" cy="267.289" fill="#ff4155" rx="64.648" ry="64.648" transform="matrix(.707 -.707 .707 .707 -71.478 362.016)"/><path d="m459.691 294.951c-21.04 2.428-26.103-18.739-26.103-18.739l-54.412-31.414c-26.111 0-23.656-23.187-23.655-23.202-11.687 11.697-18.916 27.851-18.916 45.693 0 35.704 28.944 64.647 64.647 64.647 25.806.001 48.072-15.122 58.439-36.985z" fill="#e80054"/><path d="m373.817 285.628c5.073 1.068 10.066 2.93 14.794 5.66s8.837 6.122 12.298 9.982l26.803-19.281c2.418-1.31 4.426-3.265 5.802-5.647l.637-1.103c-.082-.046-.167-.08-.249-.127-4.698-2.712-7.458-7.483-7.806-12.515-.071-1.022-.644-1.853-1.426-2.351-.861-.549-1.977-.694-2.99-.198-10.009 4.889-21.777-1.892-22.548-13.018-.078-1.126-.761-2.019-1.667-2.49-.823-.428-1.828-.509-2.749-.059-4.532 2.214-10.044 2.209-14.742-.503-.082-.047-.154-.103-.235-.152l-.637 1.103c-1.375 2.382-2.064 5.098-1.99 7.848z" fill="#fcf9eb"/><path d="m395.296 269.296c3.375-10 14.098-7.417 14.098-7.417l.202-1.117c-5.603-1.977-10.003-7.075-10.465-13.733-.078-1.126-.761-2.019-1.667-2.49-.822-.428-1.828-.509-2.749-.059-4.532 2.214-10.044 2.209-14.742-.503-.082-.047-.154-.103-.235-.152l-.637 1.103c-1.375 2.382-2.064 5.098-1.99 7.848l-3.296 32.853c4.861 1.023 9.645 2.785 14.196 5.331 2.358-7.023 5.416-16.125 7.285-21.664z" fill="#fceca9"/><path d="m389.171 290.316c-4.874-2.814-10.017-4.728-15.241-5.819l-2.67 26.618c-.561 4.846 4.938 8.021 8.855 5.112l21.717-15.622c-3.558-3.978-7.787-7.475-12.661-10.289z" fill="#5f5f9b"/><path d="m403.483 202.698-24.306 42.1c.08.048.155.102.236.149 4.85 2.8 10.755 3.001 15.796.539.539-.263 1.148-.246 1.695.023l23.143-40.084c-5.269-1.598-10.822-2.532-16.564-2.727z" fill="#ffb332"/><path d="m420.046 205.425-23.143 40.084c.042.021.087.031.129.056.578.334.935.895.98 1.54.388 5.597 3.515 10.609 8.365 13.41 4.85 2.8 10.755 3.001 15.795.54.581-.284 1.246-.256 1.824.078.042.024.073.058.113.084l22.875-39.621c-7.418-7.424-16.635-13.045-26.938-16.171z" fill="#ffdd40"/><path d="m446.984 221.596-22.875 39.621c.506.339.825.858.867 1.457.388 5.596 3.515 10.609 8.365 13.41.081.047.166.083.248.129l23.728-41.098c-2.85-4.954-6.321-9.504-10.333-13.519z" fill="#ffb332"/><g><path d="m119.981 458.39v-121.81c0-18.308 12.885-33.742 30.031-37.711h-81c-6.719 0-12.215 5.497-12.215 12.215v98.558c17.832 24.858 40.206 46.23 65.901 62.924-1.746-4.396-2.717-9.177-2.717-14.176z" fill="#d3dcfb"/></g><path d="m384.671 300.918s1.63-4.863 3.704-11.041c-4.638-2.57-9.504-4.349-14.446-5.381l-2.67 26.618c-.561 4.846 4.938 8.021 8.855 5.112l8.388-6.034c-6.163-1.79-3.831-9.274-3.831-9.274z" fill="#47477f"/></g></svg>